<svg xmlns="http://www.w3.org/2000/svg" viewBox="0 0 40 26"><path fill="#fff" d="M0 0h40v26H0z"/><g fill="#ef201f"><path d="M11.56 10.93a1.16 1.16 0 01-2.29.26 1.24 1.24 0 01.2-1.01 1.15 1.15 0 011.98.2 1.23 1.23 0 01.12.55"/><path d="M4.21 9.7a.3.3 0 00.27.08h1.53a2.05 2.05 0 01.4.05 1.1 1.1 0 01.35 2.04 1.25 1.25 0 01-.65.17H4.46c-.09 0-.17-.02-.24.08v.71c.06.1.14.1.23.1h1.69a1.96 1.96 0 001.94-1.67A1.99 1.99 0 006.12 8.9H4.35a.13.13 0 00-.13.14v.65zm5 3.46h-.66c-.18 0-.21.03-.21.21v1.83a1.93 1.93 0 00.63 1.41 2.04 2.04 0 001.78.52 2 2 0 001.7-1.92c.03-.62.02-1.23.01-1.85a1.16 1.16 0 00-.03-.2h-.71a.14.14 0 00-.14.14 1.32 1.32 0 000 .15l-.01 1.64a1.37 1.37 0 01-.09.5 1.14 1.14 0 01-1.98.3 1.28 1.28 0 01-.26-.8V13.4a2.18 2.18 0 00-.03-.24zm-1.2 3.98l-.07-.12-1.08-1.4-.49-.63c-.08-.1-.07-.15.02-.25l.08-.08 1.3-1.3.15-.16-.07-.04h-.88a.49.49 0 00-.22.1 1 1 0 00-.15.15l-1.28 1.3c-.04.05-.07.12-.17.1v-1.37a1.12 1.12 0 000-.14c-.01-.09-.05-.14-.15-.14h-.64c-.1 0-.13.04-.14.14a1.13 1.13 0 000 .12v3.56c0 .14.04.18.18.19h.56c.14 0 .18-.05.2-.2v-.83a.37.37 0 01.07-.27l.29-.3c.08-.07.14-.06.21.03.03.02.04.05.06.08l1 1.3a.4.4 0 00.37.19h.64l.22-.03zm2.46-8.23a2.08 2.08 0 00-1.67.73 1.94 1.94 0 00-.45 1.52 1.87 1.87 0 00.62 1.23 2.07 2.07 0 001.85.5 2 2 0 001.36-3.01 1.95 1.95 0 00-1.71-.97zM8.34 18.92H3.41a.91.91 0 01-.67-.25.87.87 0 01-.28-.64V8.18a1.35 1.35 0 01.03-.33.9.9 0 01.85-.68h8.93l.97-.02a.94.94 0 01.83.42 1.07 1.07 0 01.16.63v9.87a.95.95 0 01-.96.86c-1.39-.02-2.78 0-4.17 0h-.76z"/></g><path fill="#006887" d="M16 10.72h1.04l.88 3.9h.03l1.01-3.9h1l1.03 3.9h.03l.85-3.9h1l-1.24 4.93h-1.19l-.98-3.71h-.03l-.97 3.71h-1.18zm8.13 2.96l.67-.1c.38-.06.45-.12.45-.28a.55.55 0 00-.63-.59.6.6 0 00-.68.57h-.86c.05-.78.68-1.22 1.54-1.22 1.04 0 1.55.45 1.55 1.28v2.31h-.88v-.42h-.04a1.27 1.27 0 01-1.12.5c-.78 0-1.19-.4-1.19-.98s.36-.94 1.19-1.07zm1.12.56v-.31a.5.5 0 01-.35.16l-.53.09c-.38.07-.52.23-.52.47 0 .28.19.44.55.44a.8.8 0 00.85-.85zm1.89-3.84h.92v5.25h-.92zm1.93 0h.92v5.25h-.92zm3.5 1.66a1.6 1.6 0 011.71 1.75v.26H31.7c.04.63.37 1 .9 1a.73.73 0 00.75-.48h.9a1.56 1.56 0 01-1.67 1.15 1.66 1.66 0 01-1.83-1.82 1.73 1.73 0 011.82-1.86zm-.84 1.43h1.61c-.06-.52-.32-.76-.77-.76a.84.84 0 00-.84.76zm3.48-.65h-.66v-.69h.66V11.1h.92v1.06H37v.69h-.87v1.55c0 .37.12.51.49.51H37v.75h-.56c-.91 0-1.23-.33-1.23-1.2z"/></svg>