<svg viewBox="0 0 40 26" xmlns="http://www.w3.org/2000/svg"><path d="m0-.02h40v26h-40z" fill="#4c3494"/><g fill="#fff"><path d="m13.07 16.6a5 5 0 0 1 -3.57 1.48 5 5 0 0 1 -3.6-1.48 5.21 5.21 0 0 1 0-7.21 5 5 0 0 1 3.6-1.48 5 5 0 0 1 3.57 1.48 5.21 5.21 0 0 1 0 7.21zm-3.57-7a3.25 3.25 0 0 0 -3.18 3.4 3.25 3.25 0 0 0 3.18 3.43 3.24 3.24 0 0 0 3.15-3.43 3.24 3.24 0 0 0 -3.15-3.45"/><path d="m24.78 9.1-3.82 9h-.35a1.65 1.65 0 0 1 -.91-.28 1.61 1.61 0 0 1 -.61-.73l-3.15-7.28h-.94v-1.63h4v1.63h-1l2.33 5.52 2.25-5.52h-1v-1.63h3.19z"/><path d="m34.06 16.6a5.09 5.09 0 0 1 -7.18 0 5.21 5.21 0 0 1 0-7.21 5.09 5.09 0 0 1 7.18 0 5.23 5.23 0 0 1 0 7.21zm-3.58-7a3.25 3.25 0 0 0 -3.17 3.4 3.18 3.18 0 1 0 6.33 0 3.24 3.24 0 0 0 -3.16-3.45z"/></g></svg>